<svg width="29" height="29" viewBox="0 0 29 29" fill="none" xmlns="http://www.w3.org/2000/svg">
<path fill-rule="evenodd" clip-rule="evenodd" d="M19.1557 20.01C17.1221 21.843 14.4299 22.9583 11.4792 22.9583C5.14388 22.9583 0 17.8145 0 11.4792C0 5.14388 5.14388 0 11.4792 0C17.8145 0 22.9583 5.14388 22.9583 11.4792C22.9583 14.4299 21.843 17.1221 20.01 19.1557L29 28.1457L28.1457 29L19.1557 20.01ZM11.4792 1.20833C17.1475 1.20833 21.75 5.81088 21.75 11.4792C21.75 17.1475 17.1475 21.75 11.4792 21.75C5.81088 21.75 1.20833 17.1475 1.20833 11.4792C1.20833 5.81088 5.81088 1.20833 11.4792 1.20833Z" fill="white"/>
</svg>
